<svg xmlns="http://www.w3.org/2000/svg" width="33.763" height="33.762" viewBox="0 0 33.763 33.762">
  <path id="app-store" d="M17.437,8.248l.62-1.069a1.391,1.391,0,1,1,2.41,1.389L14.51,18.88h4.309a1.907,1.907,0,0,1,1.572,2.777H7.765a1.388,1.388,0,0,1,0-2.777H11.3l4.534-7.855L14.421,8.569a1.391,1.391,0,1,1,2.41-1.389l.606,1.069ZM12.079,23.087,10.745,25.4a1.391,1.391,0,1,1-2.41-1.389L9.33,22.3a2.372,2.372,0,0,1,2.75.79Zm11.5-4.2h3.615a1.388,1.388,0,0,1,0,2.777H25.184l1.354,2.349a1.391,1.391,0,1,1-2.41,1.389q-3.42-5.932-5.133-8.89a3.836,3.836,0,0,1,.49-4.7Q20.853,14.156,23.577,18.887ZM17.444.563A16.881,16.881,0,1,0,34.326,17.444,16.877,16.877,0,0,0,17.444.563Zm14.7,16.882a14.7,14.7,0,1,1-14.7-14.7A14.7,14.7,0,0,1,32.147,17.445Z" transform="translate(-0.563 -0.563)" fill="#fafcfc"/>
</svg>
