<svg xmlns="http://www.w3.org/2000/svg" width="38" height="38" viewBox="0 0 38 38">
  <g id="Groupe_61" data-name="Groupe 61" transform="translate(-0.001)">
    <g id="Groupe_11" data-name="Groupe 11">
      <circle id="Ellipse_6" data-name="Ellipse 6" cx="19" cy="19" r="19" transform="translate(0.001)" fill="#fff"/>
      <path id="Ellipse_6_-_Contour" data-name="Ellipse 6 - Contour" d="M19,3A16,16,0,0,0,7.686,30.314,16,16,0,0,0,30.314,7.686,15.9,15.9,0,0,0,19,3m0-3A19,19,0,1,1,0,19,19,19,0,0,1,19,0Z" transform="translate(0.001)" fill="#777"/>
      <path id="Tracé_4" data-name="Tracé 4" d="M2609.929,763.7a1.494,1.494,0,0,1-1.061-.439l-6.929-6.929a1.5,1.5,0,0,1-.439-1.061V743.547a1.5,1.5,0,0,1,3,0v11.1l6.49,6.49a1.5,1.5,0,0,1-1.061,2.561Z" transform="translate(-2584.066 -735.351)" fill="#777"/>
    </g>
  </g>
</svg>
