<svg xmlns="http://www.w3.org/2000/svg" width="40.046" height="31.697" viewBox="0 0 40.046 31.697">
  <g id="Groupe_406" data-name="Groupe 406" transform="translate(-10676.817 -3508.222)">
    <path id="Tracé_155" data-name="Tracé 155" d="M114.837,60.812h-6.532L106.96,57.9a3.646,3.646,0,0,0-3.3-2.111H92.2A3.646,3.646,0,0,0,88.9,57.9l-1.345,2.915H82.422a3.661,3.661,0,0,0-3.664,3.634v19.4a3.666,3.666,0,0,0,3.664,3.634h32.415A3.666,3.666,0,0,0,118.5,83.85v-19.4a3.661,3.661,0,0,0-3.664-3.634Z" transform="translate(10598.059 3452.435)" fill="none"/>
    <path id="Tracé_116" data-name="Tracé 116" d="M115.139,60.812h-6.834L106.96,57.9a3.646,3.646,0,0,0-3.3-2.111H92.2A3.646,3.646,0,0,0,88.9,57.9l-1.345,2.915H82.422a3.661,3.661,0,0,0-3.664,3.634v19.4a3.666,3.666,0,0,0,3.664,3.634h32.717A3.666,3.666,0,0,0,118.8,83.85v-19.4a3.661,3.661,0,0,0-3.664-3.634Zm1.036,23.038a1.03,1.03,0,0,1-1.036,1.005H82.422a1.035,1.035,0,0,1-1.036-1.005v-19.4a1.03,1.03,0,0,1,1.036-1.005H88.4a1.311,1.311,0,0,0,1.191-.765L91.29,59a1.012,1.012,0,0,1,.912-.588h11.465a1,1,0,0,1,.912.588l1.7,3.672a1.319,1.319,0,0,0,1.191.765h7.677a1.03,1.03,0,0,1,1.036,1.005v19.4Z" transform="translate(10598.059 3452.435)" fill="#777"/>
    <path id="Tracé_117" data-name="Tracé 117" d="M215.221,161.33a10.251,10.251,0,1,0,10.251,10.243A10.264,10.264,0,0,0,215.221,161.33Zm0,17.867a7.622,7.622,0,1,1,7.622-7.622A7.633,7.633,0,0,1,215.221,179.2Z" transform="translate(10481.482 3353.954)" fill="#777"/>
    <path id="Tracé_118" data-name="Tracé 118" d="M134.406,191.41h-2.938a1.314,1.314,0,1,0,0,2.629h2.938a1.314,1.314,0,1,0,0-2.629Z" transform="translate(10576.802 3318.269)" fill="#777"/>
  </g>
</svg>
