<svg xmlns="http://www.w3.org/2000/svg" width="30" height="30" viewBox="0 0 30 30">
  <g transform="translate(-1751.5 -53.5)">
    <path id="Icon_feather-message-square" data-name="Icon feather-message-square" d="M31.5,22.5a3,3,0,0,1-3,3h-18l-6,6V7.5a3,3,0,0,1,3-3h21a3,3,0,0,1,3,3Z" transform="translate(1748.5 50.5)" fill="#ffeaea"/>
    <path id="Icon_feather-message-square_-_Contour" data-name="Icon feather-message-square - Contour" d="M4.5,33A1.5,1.5,0,0,1,3,31.5V7.5A4.505,4.505,0,0,1,7.5,3h21A4.505,4.505,0,0,1,33,7.5v15A4.505,4.505,0,0,1,28.5,27H11.121L5.561,32.561A1.5,1.5,0,0,1,4.5,33Zm3-27A1.5,1.5,0,0,0,6,7.5V27.879l3.439-3.439A1.5,1.5,0,0,1,10.5,24h18A1.5,1.5,0,0,0,30,22.5V7.5A1.5,1.5,0,0,0,28.5,6Z" transform="translate(1748.5 50.5)" fill="#ec6d75"/>
  </g>
</svg>
