<svg xmlns="http://www.w3.org/2000/svg" width="39.411" height="39.411" viewBox="0 0 39.411 39.411">
  <g transform="translate(-1565.104 -988.734)">
    <path id="send" d="M35.843.224a1.269,1.269,0,0,1,.548,1.3l-5.2,31.209a1.278,1.278,0,0,1-.65.914,1.245,1.245,0,0,1-.63.163,1.371,1.371,0,0,1-.487-.1L19.035,29.025,15.3,35.944a1.2,1.2,0,0,1-1,.467,1.1,1.1,0,0,1-.447-.081A1.3,1.3,0,0,1,13,35.11V28.019L26.512,11.341,8.839,25.3.813,22.005A1.286,1.286,0,0,1,.65,19.689L34.46.183A1.241,1.241,0,0,1,35.11,0a1.259,1.259,0,0,1,.731.224Z" transform="translate(1566.606 990.234)" fill="#ffeaea"/>
    <path id="send_-_Contour" data-name="send - Contour" d="M35.11-1.5a2.777,2.777,0,0,1,1.533.455q.041.026.081.055a2.779,2.779,0,0,1,1.149,2.737l0,.023-5.2,31.209v.007A2.758,2.758,0,0,1,31.3,34.939l-.018.01a2.732,2.732,0,0,1-1.376.361,2.865,2.865,0,0,1-1.024-.2l-.08-.033-9.113-4.11-3.072,5.69a1.5,1.5,0,0,1-.139.212A2.7,2.7,0,0,1,14.3,37.911a2.612,2.612,0,0,1-1.007-.189A2.8,2.8,0,0,1,11.5,35.11V28.019a1.5,1.5,0,0,1,.334-.944l5.024-6.2-7.094,5.6a1.5,1.5,0,0,1-1.5.211L.26,23.4A2.69,2.69,0,0,1-1.5,21q0-.018,0-.036A2.706,2.706,0,0,1-.091,18.385L33.7-1.111A2.725,2.725,0,0,1,35.11-1.5ZM29.755,32.214l5.087-30.52L1.768,20.776l6.828,2.8L25.582,10.163a1.5,1.5,0,0,1,2.1,2.121L14.5,28.55v5.71l3.211-5.948a1.5,1.5,0,0,1,1.937-.655Z" transform="translate(1566.606 990.234)" fill="#ec6d75"/>
  </g>
</svg>
