<svg xmlns="http://www.w3.org/2000/svg" width="49" height="32" viewBox="0 0 49 32">
  <g id="Groupe_62" data-name="Groupe 62" transform="translate(0 0)">
    <g id="Groupe_12" data-name="Groupe 12">
      <g id="Groupe_9" data-name="Groupe 9" transform="translate(6 7)">
        <rect id="Rectangle_9" data-name="Rectangle 9" width="43" height="25" rx="2" transform="translate(0 0)" fill="#fff"/>
        <path id="Rectangle_9_-_Contour" data-name="Rectangle 9 - Contour" d="M3,3V22H40V3H3M2,0H41a2,2,0,0,1,2,2V23a2,2,0,0,1-2,2H2a2,2,0,0,1-2-2V2A2,2,0,0,1,2,0Z" transform="translate(0 0)" fill="#777"/>
        <text id="_" data-name="€" transform="translate(14 18)" fill="#ec6d75" font-size="18" font-family="Josefin Sans" font-weight="600"><tspan x="0" y="0">€</tspan></text>
      </g>
      <g id="Groupe_10" data-name="Groupe 10">
        <rect id="Rectangle_9-2" data-name="Rectangle 9" width="42" height="25" rx="2" transform="translate(0 0)" fill="#fff"/>
        <path id="Rectangle_9_-_Contour-2" data-name="Rectangle 9 - Contour" d="M3,3V22H39V3H3M2,0H40a2,2,0,0,1,2,2V23a2,2,0,0,1-2,2H2a2,2,0,0,1-2-2V2A2,2,0,0,1,2,0Z" transform="translate(0 0)" fill="#777"/>
        <text id="_2" data-name="€" transform="translate(14 19)" fill="#777" font-size="19" font-family="Josefin Sans" font-weight="600"><tspan x="0" y="0">€</tspan></text>
      </g>
    </g>
  </g>
</svg>
