<svg xmlns="http://www.w3.org/2000/svg" xmlns:xlink="http://www.w3.org/1999/xlink" width="39" height="51" viewBox="0 0 39 51">
  <defs>
    <clipPath id="clip-path">
      <rect id="Rectangle_11" data-name="Rectangle 11" width="20" height="18" transform="translate(0 0.301)" fill="none" stroke="#707070" stroke-width="1"/>
    </clipPath>
  </defs>
  <g id="Groupe_59" data-name="Groupe 59" transform="translate(0 -0.301)">
    <g id="Groupe_14" data-name="Groupe 14">
      <rect id="Rectangle_10" data-name="Rectangle 10" width="39" height="30" rx="9" transform="translate(0 21.301)" fill="#ffeaea"/>
      <path id="Rectangle_10_-_Contour" data-name="Rectangle 10 - Contour" d="M9,3A6.007,6.007,0,0,0,3,9V21a6.007,6.007,0,0,0,6,6H30a6.007,6.007,0,0,0,6-6V9a6.007,6.007,0,0,0-6-6H9M9,0H30a9,9,0,0,1,9,9V21a9,9,0,0,1-9,9H9a9,9,0,0,1-9-9V9A9,9,0,0,1,9,0Z" transform="translate(0 21.301)" fill="#ec6d75"/>
      <g id="Groupe_13" data-name="Groupe 13" transform="translate(16 30)">
        <circle id="Ellipse_8" data-name="Ellipse 8" cx="4" cy="4" r="4" transform="translate(0 0.301)" fill="#ec6d75"/>
        <rect id="Rectangle_12" data-name="Rectangle 12" width="4" height="6" rx="1" transform="translate(2 6.301)" fill="#ec6d75"/>
      </g>
      <g id="Groupe_15" data-name="Groupe 15" transform="translate(10)">
        <g id="Groupe_de_masques_1" data-name="Groupe de masques 1" transform="translate(0)" clip-path="url(#clip-path)">
          <path id="Ellipse_7" data-name="Ellipse 7" d="M10,3a7,7,0,1,0,7,7,7.008,7.008,0,0,0-7-7m0-3A10,10,0,1,1,0,10,10,10,0,0,1,10,0Z" transform="translate(0 8.301)" fill="#ec6d75"/>
        </g>
        <path id="Ligne_1" data-name="Ligne 1" d="M1.5,4.159h-3V0h3Z" transform="translate(1.456 17.456)" fill="#ec6d75"/>
        <path id="Ligne_2" data-name="Ligne 2" d="M1.5,4.159h-3V0h3Z" transform="translate(18.348 17.456)" fill="#ec6d75"/>
      </g>
    </g>
  </g>
</svg>
