<svg xmlns="http://www.w3.org/2000/svg" width="31.498" height="31.467" viewBox="0 0 31.498 31.467">
  <path id="playstore" d="M29.529,31.467H1.969A1.918,1.918,0,0,1,.584,30.9,1.877,1.877,0,0,1,0,29.5V9.812A1.892,1.892,0,0,1,.584,8.428a1.892,1.892,0,0,1,1.384-.584H5.906V3.937L9.843,0V7.844H21.655V0l3.937,3.937V7.844h3.937a1.878,1.878,0,0,1,1.4.584A1.913,1.913,0,0,1,31.5,9.812V29.5a1.942,1.942,0,0,1-1.969,1.969ZM9.843,11.781V27.53l13.78-7.874ZM11.812,0h7.874V3.937H11.812Z" fill="#fafcfc"/>
</svg>
