<svg xmlns="http://www.w3.org/2000/svg" width="30.394" height="19.072" viewBox="0 0 30.394 19.072">
  <g id="cash" transform="translate(0.1 0.1)">
    <path id="Path_29" data-name="Path 29" d="M28.307,8.637H1.887v15.1h26.42ZM1.887,6.75A1.887,1.887,0,0,0,0,8.637v15.1a1.887,1.887,0,0,0,1.887,1.887h26.42a1.887,1.887,0,0,0,1.887-1.887V8.637A1.887,1.887,0,0,0,28.307,6.75Z" transform="translate(0 -6.75)" stroke="#000" stroke-width="0.2" fill-rule="evenodd"/>
    <path id="Path_30" data-name="Path 30" d="M24.9,9a3.774,3.774,0,0,0,3.774,3.774V9ZM6.024,9A3.774,3.774,0,0,1,2.25,12.774V9ZM24.9,24.1a3.774,3.774,0,0,1,3.774-3.774V24.1Zm-18.872,0A3.774,3.774,0,0,0,2.25,20.323V24.1Zm13.21-7.549a3.774,3.774,0,1,1-3.774-3.774A3.774,3.774,0,0,1,19.234,16.549Z" transform="translate(-0.363 -7.113)" stroke="#000" stroke-width="0.2"/>
  </g>
</svg>
