<svg id="image" xmlns="http://www.w3.org/2000/svg" width="30.194" height="22.646" viewBox="0 0 30.194 22.646">
  <path id="Path_31" data-name="Path 31" d="M9.774,10.5a3.774,3.774,0,1,0,3.774,3.774A3.774,3.774,0,0,0,9.774,10.5ZM8.516,14.274a1.258,1.258,0,1,1,1.258,1.258A1.258,1.258,0,0,1,8.516,14.274Z" transform="translate(-0.968 -5.468)" fill-rule="evenodd"/>
  <path id="Path_32" data-name="Path 32" d="M3.774,4.5A3.774,3.774,0,0,0,0,8.274v15.1a3.774,3.774,0,0,0,3.774,3.774H26.42a3.774,3.774,0,0,0,3.774-3.774V8.274A3.774,3.774,0,0,0,26.42,4.5ZM26.42,7.016H3.774A1.258,1.258,0,0,0,2.516,8.274v15.1A1.258,1.258,0,0,0,3.774,24.63H9.2l8.653-8.655a3.774,3.774,0,0,1,5.339,0l4.485,4.486V8.274A1.258,1.258,0,0,0,26.42,7.016Zm0,17.613H12.76l6.875-6.874a1.258,1.258,0,0,1,1.779,0L27.561,23.9A1.258,1.258,0,0,1,26.42,24.63Z" transform="translate(0 -4.5)" fill-rule="evenodd"/>
</svg>
