<svg id="profile" xmlns="http://www.w3.org/2000/svg" width="27.678" height="27.678" viewBox="0 0 27.678 27.678">
  <path id="Path_27" data-name="Path 27" d="M22.065,12.532A5.032,5.032,0,1,1,17.032,7.5a5.032,5.032,0,0,1,5.032,5.032Zm-2.516,0a2.516,2.516,0,1,1-2.516-2.516,2.516,2.516,0,0,1,2.516,2.516Z" transform="translate(-3.193 -2.468)" fill-rule="evenodd"/>
  <path id="Path_28" data-name="Path 28" d="M15.339,1.5A13.839,13.839,0,1,0,29.178,15.339,13.839,13.839,0,0,0,15.339,1.5ZM4.016,15.339a11.278,11.278,0,0,0,2.4,6.972,11.325,11.325,0,0,1,17.927-.106A11.323,11.323,0,1,0,4.016,15.339ZM15.339,26.662A11.276,11.276,0,0,1,8.2,24.131a8.81,8.81,0,0,1,14.376-.086A11.278,11.278,0,0,1,15.339,26.662Z" transform="translate(-1.5 -1.5)" fill-rule="evenodd"/>
</svg>
